<?xml version="1.0" encoding="utf-8"?>
<!-- Generator: Adobe Illustrator 21.0.2, SVG Export Plug-In . SVG Version: 6.00 Build 0)  -->
<svg version="1.1" id="Layer_1" xmlns="http://www.w3.org/2000/svg" xmlns:xlink="http://www.w3.org/1999/xlink" x="0px" y="0px"
	 viewBox="0 0 486 486" style="enable-background:new 0 0 486 486;" xml:space="preserve">
<style type="text/css">
	.st0{fill:#0000FF;}
</style>
<g>
	<path class="st0" d="M145.6,310.9l41.4-24.2c8.8,22.8,25.9,37.5,56.4,37.5c29.1,0,39.3-12.2,39.3-25.9c0-18.3-16.5-25.3-53-35.8
		c-37.5-10.9-74-26.6-74-73.3c0-46.3,38.6-72.9,80.7-72.9c40.4,0,71.2,20.7,87.7,55.1l-40.6,23.5c-8.8-18.5-22.1-31.6-47-31.6
		c-20.3,0-32.3,10.6-32.3,24.6c0,15.1,9.5,23.2,46.7,34.3c39,12.2,80.3,25.3,80.3,75.4c0,46-36.8,74-89.1,74
		C191.8,371.6,158.9,347.4,145.6,310.9z"/>
	<polygon class="st0" points="178,97 98,97 98,177 43,177 43,42 178,42 	"/>
	<polygon class="st0" points="443,177 388,177 388,97 308,97 308,42 443,42 	"/>
	<polygon class="st0" points="443,309 443,444 308,444 308,389 388,389 388,309 	"/>
	<polygon class="st0" points="178,444 43,444 43,309 98,309 98,389 178,389 	"/>
</g>
</svg>
